PathFileType	4	(X/Y/Z)	OpenSim_Sub09_CSStiffKnee_Magnet.trc
DataRate	CameraRate	NumFrames	NumMarkers	Units	OrigDataRate	OrigDataStartFrame	OrigNumFrames
100	100	20	8	m	100	1782	7127
Frame#	Time	torso_imu_offset_imu	pelvis_imu_offset_imu	tibia_r_imu_offset_imu	femur_r_imu_offset_imu	tibia_l_imu_offset_imu	femur_l_imu_offset_imu	toes_r_imu_offset_imu	toes_l_imu_offset_imu
				X1	Y1	Z1	X2	Y2	Z2	X3	Y3	Z3	X4	Y4	Z4	X5	Y5	Z5	X6	Y6	Z6	X7	Y7	Z7	X8		Y8	Z8	

1782	17.81000000	-0.89508724	-0.14443143	0.21783751	-0.53789047	0.08124829	-0.76595263	-0.52067079	-0.67753571	-0.13469934	-0.64957356	-0.53591135	0.04905614	-0.73502459	0.32218759	0.05646041	-0.73069997	0.06005301	0.16022915	-0.71054125	-0.10275357	-0.31713487	-0.61673232	-0.18173595	-0.49083388
1783	17.82000000	-0.89841427	-0.14573725	0.21434501	-0.54487507	0.09121540	-0.76486702	-0.51260999	-0.68106869	-0.13647293	-0.64829079	-0.54473731	0.04867355	-0.73951056	0.31665793	0.05651219	-0.73398859	0.05877191	0.15939375	-0.71434055	-0.10212076	-0.31861556	-0.61235314	-0.17731977	-0.49864166
1784	17.83000000	-0.89642609	-0.14792666	0.20967965	-0.54648401	0.09911692	-0.75627900	-0.50709904	-0.68709172	-0.14649058	-0.64647183	-0.54421618	0.04079314	-0.74178043	0.31400614	0.05606517	-0.73303700	0.05631917	0.16623017	-0.71100422	-0.11009083	-0.31973909	-0.61197789	-0.18103900	-0.50217408
1785	17.84000000	-0.89925277	-0.15611107	0.20115374	-0.55053506	0.10421042	-0.75119291	-0.50074744	-0.69128575	-0.15016874	-0.64089100	-0.54680326	0.04235578	-0.74267330	0.31219310	0.05656735	-0.73062385	0.04489837	0.17329694	-0.70918956	-0.11293415	-0.31601329	-0.61258631	-0.18630133	-0.50247459
1786	17.85000000	-0.89847951	-0.16154157	0.19491455	-0.55985681	0.11544479	-0.74699264	-0.48755702	-0.69822242	-0.15318173	-0.63832559	-0.55087078	0.03872579	-0.74545939	0.30809862	0.05960891	-0.73001388	0.04016963	0.17349007	-0.71124437	-0.12074681	-0.31456017	-0.60666944	-0.19300503	-0.50251423
1787	17.86000000	-0.90040632	-0.16647343	0.19576386	-0.56587307	0.12680803	-0.73804962	-0.48079046	-0.69684025	-0.15931837	-0.64066022	-0.55232022	0.02409385	-0.74417371	0.30607947	0.06087799	-0.72332732	0.03968632	0.17793029	-0.71010283	-0.11892363	-0.31388654	-0.60497744	-0.19136617	-0.50060736
1788	17.87000000	-0.90273574	-0.17629318	0.18621536	-0.56955171	0.13671767	-0.72995165	-0.46631104	-0.70529319	-0.16754100	-0.63936801	-0.55590611	0.01708376	-0.74288988	0.31051930	0.06796141	-0.72307269	0.04307969	0.18581528	-0.70993858	-0.12386350	-0.30898966	-0.61561602	-0.17506585	-0.48803024
1789	17.88000000	-0.89646685	-0.18555763	0.17532021	-0.57827714	0.14892338	-0.72831017	-0.45445156	-0.71471292	-0.17456119	-0.63849586	-0.56012250	0.01387494	-0.74552765	0.30946607	0.06560247	-0.72617095	0.03520487	0.17666358	-0.71679606	-0.12609548	-0.31035882	-0.62612816	-0.15237118	-0.48041964
1790	17.89000000	-0.89605618	-0.19388686	0.15795307	-0.58233430	0.16008788	-0.71821839	-0.44723270	-0.71918604	-0.18130247	-0.63806999	-0.55246807	0.00534480	-0.74180366	0.31365325	0.08153845	-0.72366561	0.04046987	0.19049580	-0.71452506	-0.13257395	-0.30614948	-0.64931632	-0.14786247	-0.45256485
1791	17.90000000	-0.89616012	-0.20176424	0.15356811	-0.58736726	0.17029198	-0.70421413	-0.43334188	-0.73288777	-0.18521048	-0.63216323	-0.55576107	-0.00260166	-0.73324571	0.33063799	0.09706334	-0.71813251	0.04786201	0.19771791	-0.71525760	-0.13225819	-0.30294041	-0.66043781	-0.13467351	-0.44019838
1792	17.91000000	-0.90001972	-0.21410923	0.14006090	-0.59432057	0.18126810	-0.70211475	-0.41890838	-0.73946842	-0.19474094	-0.64025815	-0.55172247	-0.00730937	-0.72548303	0.34131749	0.10411038	-0.70821615	0.04169950	0.20980227	-0.71194686	-0.12918319	-0.29769144	-0.66518040	-0.12332609	-0.43257931
1793	17.92000000	-0.89558536	-0.22205686	0.13249742	-0.59006686	0.18718987	-0.70166346	-0.40018714	-0.74800493	-0.20263269	-0.64191888	-0.54704727	-0.01343964	-0.72297400	0.34258465	0.11643726	-0.70838995	0.04404580	0.21631879	-0.71766647	-0.13627804	-0.29298989	-0.67379595	-0.12188100	-0.42328699
1794	17.93000000	-0.89486221	-0.23075102	0.12070794	-0.58828060	0.19121367	-0.69615877	-0.38584549	-0.75560535	-0.20925235	-0.64476421	-0.54427168	-0.00950863	-0.71681446	0.35184962	0.11610684	-0.70502978	0.05312096	0.22217576	-0.72702748	-0.14321309	-0.27338515	-0.67127080	-0.12789062	-0.41953736
1795	17.94000000	-0.89373792	-0.24315829	0.11146877	-0.59733990	0.19402118	-0.68666532	-0.36976253	-0.76316753	-0.21007700	-0.65334158	-0.53895647	-0.01738204	-0.71679956	0.35972638	0.12092516	-0.69925350	0.06094651	0.23071804	-0.72551981	-0.15068974	-0.25745823	-0.67179812	-0.12897125	-0.42146500
1796	17.95000000	-0.89428944	-0.25549056	0.10444623	-0.59842896	0.19514288	-0.68219916	-0.34667883	-0.76992221	-0.20251699	-0.66333737	-0.52838585	-0.02326546	-0.70595694	0.36720443	0.13088288	-0.69707353	0.06244301	0.23407136	-0.73019254	-0.15906761	-0.24058434	-0.68127488	-0.13551470	-0.40653297
1797	17.96000000	-0.89269689	-0.25848484	0.09618731	-0.60795507	0.20113340	-0.68145784	-0.33674752	-0.77892595	-0.20260410	-0.67460435	-0.51476056	-0.02986153	-0.70213563	0.36556630	0.14788487	-0.69344016	0.06339303	0.23441309	-0.73987440	-0.16933121	-0.21475736	-0.68293250	-0.14268518	-0.40105279
1798	17.97000000	-0.88344594	-0.26850237	0.09516929	-0.61861433	0.20257671	-0.67233374	-0.31417112	-0.79033193	-0.19944678	-0.68404376	-0.50605126	-0.04184817	-0.69879730	0.37457142	0.15815219	-0.68771547	0.06831507	0.23513682	-0.74235993	-0.18945105	-0.19558803	-0.68578023	-0.15344022	-0.40953754
1799	17.98000000	-0.88245739	-0.27657906	0.08276713	-0.62726503	0.20468610	-0.66110761	-0.29287105	-0.79553887	-0.18461068	-0.69094521	-0.48331629	-0.05390571	-0.70233450	0.37241790	0.15988589	-0.68043729	0.08013080	0.24113612	-0.74792975	-0.20091812	-0.16674159	-0.68629395	-0.15616559	-0.39540907
1800	17.99000000	-0.88393189	-0.28648383	0.07471245	-0.63216858	0.21200932	-0.65674828	-0.27777558	-0.80263528	-0.16061516	-0.70147212	-0.47026397	-0.06704528	-0.69302914	0.37383610	0.15748346	-0.68036486	0.09214491	0.24459087	-0.74772923	-0.21244840	-0.15518944	-0.69180721	-0.15989786	-0.38921460
1801	18	-0.87962945	-0.29184752	0.07232737	-0.63130557	0.22226446	-0.64630767	-0.25514393	-0.81034009	-0.15142582	-0.71763205	-0.45944215	-0.07201814	-0.68867189	0.38319966	0.16925377	-0.67219282	0.10104415	0.24788304	-0.74769796	-0.22937010	-0.13848810	-0.69184740	-0.16814300	-0.38975274
